<?xml version="1.0" standalone="no"?>
<!DOCTYPE svg PUBLIC "-//W3C//DTD SVG 20010904//EN"
 "http://www.w3.org/TR/2001/REC-SVG-20010904/DTD/svg10.dtd">
<svg version="1.0" xmlns="http://www.w3.org/2000/svg"
 width="790.000000pt" height="700.000000pt" viewBox="0 0 790.000000 700.000000"
 preserveAspectRatio="xMidYMid meet">

<g transform="translate(0.000000,700.000000) scale(0.100000,-0.100000)"
fill="#000000" stroke="none">
<path d="M0 3500 l0 -3500 3950 0 3950 0 0 3500 0 3500 -3950 0 -3950 0 0
-3500z m4385 2625 c149 -107 287 -206 307 -221 20 -14 160 -75 310 -136 150
-60 277 -113 282 -118 5 -5 -7 -12 -28 -15 -20 -4 -36 -13 -36 -20 0 -7 47
-129 104 -272 118 -297 121 -303 108 -303 -5 0 -60 38 -121 85 l-112 85 32
-48 c18 -26 65 -92 104 -147 124 -173 185 -266 185 -280 0 -7 -22 -29 -49 -49
-38 -27 -51 -43 -55 -68 -39 -231 -70 -395 -77 -402 -5 -6 -22 -2 -44 9 -22
12 -38 16 -43 10 -5 -6 -65 -95 -134 -200 -287 -437 -321 -486 -329 -478 -4 4
-16 41 -26 80 -10 40 -21 73 -24 73 -4 0 -16 -22 -27 -49 -23 -52 -50 -112
-148 -324 -35 -76 -64 -142 -64 -147 0 -22 -25 -19 -80 11 -32 18 -62 30 -65
27 -4 -3 -24 -79 -46 -169 -50 -204 -69 -269 -77 -269 -4 0 -34 32 -66 70 -33
38 -63 67 -67 64 -4 -2 -10 -28 -13 -57 -6 -50 -19 -136 -52 -347 -8 -52 -17
-111 -20 -130 -12 -83 -15 -93 -29 -79 -11 12 -59 98 -182 330 l-30 56 -69
-58 c-43 -36 -72 -55 -78 -49 -9 9 -58 103 -228 438 -35 67 -65 122 -68 122
-3 0 -19 -34 -35 -75 -15 -41 -31 -75 -35 -75 -10 0 -31 74 -85 295 l-47 191
60 174 c33 96 70 202 82 235 20 54 21 73 16 194 -3 74 -8 137 -11 139 -3 3
-22 0 -43 -7 -20 -6 -75 -23 -122 -36 -47 -14 -108 -32 -136 -40 -94 -29 -88
-32 -242 109 l-140 129 5 52 c6 53 5 54 -56 133 -59 76 -61 81 -61 137 l0 59
213 215 c195 197 215 221 235 276 22 61 59 103 292 340 l69 70 81 220 c45 121
85 224 90 229 5 5 85 -7 191 -28 l183 -37 135 135 c75 75 138 136 141 136 3 0
127 -88 275 -195z m-2991 -3980 c12 -18 16 -42 14 -83 l-3 -57 -57 -3 -57 -3
-3 43 c-2 35 -7 43 -23 43 -19 0 -20 -7 -20 -130 0 -123 1 -130 20 -130 16 0
21 8 25 40 l5 40 55 0 55 0 3 -60 c2 -50 -1 -64 -18 -83 -19 -20 -30 -22 -129
-22 -150 0 -145 -6 -149 209 -3 158 -2 168 18 194 21 27 23 27 135 27 110 0
113 -1 129 -25z m267 -50 c12 -42 25 -72 29 -68 4 4 15 38 25 76 l17 67 65 0
c58 0 64 -2 58 -17 -79 -203 -105 -289 -105 -349 l0 -64 -60 0 -60 0 0 65 c0
62 -27 143 -117 353 -4 9 12 12 61 12 l65 0 22 -75z m593 53 c19 -26 22 -138
5 -170 -8 -14 -8 -23 0 -31 6 -6 11 -45 11 -86 0 -63 -3 -78 -22 -98 -20 -22
-29 -23 -150 -23 l-128 0 0 215 0 215 134 0 c128 0 136 -1 150 -22z m416 -18
l0 -40 -70 0 -70 0 0 -45 0 -45 60 0 60 0 0 -40 0 -40 -60 0 -60 0 0 -50 0
-50 70 0 70 0 0 -40 0 -41 -132 3 -133 3 0 213 -1 212 133 0 133 0 0 -40z
m406 19 c15 -17 20 -40 22 -108 4 -83 3 -89 -24 -120 l-27 -33 31 -64 c18 -35
32 -69 32 -74 0 -6 -29 -10 -64 -10 l-63 0 -31 68 -30 67 -1 -67 -1 -68 -65 0
-65 0 0 215 0 215 133 0 c123 0 135 -2 153 -21z m639 1 c9 -10 20 -40 22 -65
l6 -45 -66 0 c-60 0 -66 2 -69 22 -2 13 -11 24 -20 26 -15 3 -18 -4 -18 -42
l0 -46 63 0 c91 0 102 -14 102 -132 0 -121 -8 -128 -150 -128 -120 0 -135 9
-143 90 l-5 50 66 0 c64 0 66 -1 69 -27 2 -17 9 -28 18 -28 11 0 16 13 18 48
l3 47 -61 0 c-51 0 -65 4 -85 25 -22 21 -25 33 -25 98 0 60 4 79 21 101 20 25
24 26 128 26 94 0 110 -2 126 -20z m429 -2 c13 -18 16 -55 16 -195 0 -221 5
-213 -148 -213 -152 0 -147 -7 -147 215 0 223 -6 215 151 215 105 0 114 -1
128 -22z m278 -150 l3 -173 68 -3 67 -3 0 -39 0 -40 -130 0 -130 0 0 215 0
215 60 0 60 0 2 -172z m368 3 c0 -145 2 -170 16 -175 9 -3 20 -4 25 0 5 3 9
81 9 175 l0 169 66 0 66 0 -3 -196 c-5 -244 2 -234 -159 -234 -105 0 -109 1
-129 26 -20 25 -21 40 -21 215 l0 189 65 0 65 0 0 -169z m580 129 l0 -40 -45
0 -45 0 0 -175 0 -175 -60 0 -60 0 -2 173 -3 172 -37 3 c-21 2 -38 7 -38 11 0
5 -3 23 -6 40 l-6 31 151 0 151 0 0 -40z m230 -175 l0 -215 -60 0 -60 0 0 215
0 215 60 0 60 0 0 -215z m420 188 c21 -26 21 -36 18 -194 -4 -216 1 -209 -155
-209 l-113 0 -20 33 c-19 29 -20 46 -18 187 4 214 1 210 153 210 112 0 114 0
135 -27z m301 -73 l38 -95 0 98 1 97 55 0 55 0 0 -216 0 -215 -52 3 -53 3 -35
90 -35 90 -3 -93 -3 -92 -59 0 -60 0 0 215 0 216 56 -3 56 -3 39 -95z m559 80
c14 -14 20 -33 20 -65 l0 -45 -65 0 c-63 0 -65 1 -65 25 0 31 -26 34 -35 4 -4
-11 -4 -31 -1 -45 6 -22 11 -24 71 -24 85 0 95 -14 95 -129 0 -73 -3 -88 -22
-108 -20 -21 -30 -23 -124 -23 -99 0 -103 1 -123 26 -14 18 -21 41 -21 70 l0
44 58 0 c55 0 58 -1 69 -31 11 -28 15 -30 28 -19 11 9 15 26 13 49 l-3 36 -68
6 c-37 3 -73 11 -79 17 -16 16 -27 112 -18 161 11 62 28 70 148 71 89 0 105
-3 122 -20z m-5922 -652 c2 -87 5 -99 23 -109 16 -8 25 -7 40 7 16 14 19 31
19 111 l0 93 30 0 30 0 0 -103 c0 -114 -8 -136 -59 -157 -44 -18 -95 -5 -125
31 -24 28 -26 38 -26 130 l0 100 33 -3 32 -3 3 -97z m346 47 c20 -30 40 -55
44 -55 4 1 24 25 45 55 31 46 43 55 67 55 l30 0 0 -129 c0 -77 -4 -132 -10
-136 -6 -3 -19 -3 -30 0 -17 6 -20 15 -20 78 l-1 72 -27 -31 c-39 -45 -65 -48
-99 -12 l-28 30 -5 -69 c-5 -68 -5 -68 -35 -68 l-30 0 -3 133 -3 132 34 0 c30
0 38 -6 71 -55z m576 -22 l55 -73 3 75 3 75 29 0 30 0 0 -136 0 -135 -27 3
c-21 2 -41 21 -83 76 l-55 72 -5 -72 -5 -73 -30 0 -30 0 -3 133 -3 133 33 -3
c27 -2 42 -15 88 -75z m420 64 c39 -19 70 -74 70 -122 0 -120 -140 -177 -226
-91 -65 65 -50 168 31 214 27 15 94 15 125 -1z m258 -80 c20 -48 39 -84 42
-80 4 5 19 40 34 78 15 39 32 76 38 83 9 10 68 18 68 9 0 -7 -49 -126 -80
-194 -29 -65 -36 -73 -60 -73 -15 0 -32 6 -38 13 -12 14 -75 156 -98 220 l-14
38 37 -3 c35 -3 36 -5 71 -91z m493 54 c36 -36 39 -43 39 -94 0 -67 -30 -110
-91 -128 -119 -36 -216 98 -146 202 29 43 60 59 116 59 37 0 49 -5 82 -39z
m469 -67 c0 -104 0 -106 -30 -136 -27 -26 -36 -30 -67 -25 -34 6 -73 31 -73
48 0 5 9 13 20 19 15 8 26 7 43 -5 13 -8 27 -12 30 -8 4 3 7 53 7 110 l0 103
35 0 35 0 0 -106z m268 84 c-3 -20 -10 -23 -55 -26 -51 -3 -53 -4 -53 -32 0
-27 2 -29 48 -32 39 -3 47 -6 47 -23 0 -17 -8 -20 -47 -23 -46 -3 -48 -5 -48
-33 0 -29 1 -29 56 -29 52 0 55 -1 52 -22 -3 -21 -9 -23 -85 -26 l-83 -3 0
136 0 135 86 0 c83 0 85 -1 82 -22z m202 -3 c0 -14 -4 -25 -10 -25 -6 0 -10
-35 -10 -85 0 -50 4 -85 10 -85 15 0 12 -37 -2 -42 -7 -2 -29 -3 -48 -3 -29 0
-36 4 -38 23 -2 12 1 22 7 22 14 0 15 166 1 175 -5 3 -10 15 -10 26 0 16 7 19
50 19 47 0 50 -2 50 -25z m288 3 c-2 -18 -11 -24 -35 -26 l-33 -3 0 -104 c0
-62 -4 -106 -11 -110 -5 -4 -21 -4 -35 -1 -24 6 -24 8 -24 111 l0 105 -29 0
c-33 0 -46 13 -37 35 4 12 27 15 106 15 99 0 101 0 98 -22z m290 2 c85 -52 80
-179 -9 -230 -73 -40 -152 -12 -185 67 -18 42 -18 67 3 110 32 69 123 94 191
53z m518 -14 c32 -32 34 -38 34 -100 0 -58 -3 -69 -29 -98 -29 -32 -31 -33
-113 -33 l-83 0 -3 133 -3 132 82 0 c79 0 82 -1 115 -34z m309 9 c0 -17 -8
-20 -52 -23 -51 -3 -53 -4 -53 -33 0 -28 2 -29 46 -29 41 0 45 -2 42 -22 -2
-19 -10 -24 -45 -26 -40 -3 -43 -5 -43 -33 0 -29 1 -29 55 -29 47 0 55 -3 55
-19 0 -26 -19 -31 -106 -31 l-74 0 0 135 0 136 88 -3 c79 -3 87 -5 87 -23z
m460 13 c47 -21 20 -67 -29 -48 -40 15 -54 13 -81 -15 -34 -34 -33 -76 5 -117
l29 -33 42 23 c39 20 44 21 60 6 24 -22 15 -40 -32 -58 -52 -21 -87 -20 -126
4 -69 42 -87 140 -36 200 14 18 36 36 47 40 31 13 91 12 121 -2z m314 -14 c26
-34 27 -74 1 -107 l-20 -25 35 -46 c43 -56 43 -66 5 -66 -24 0 -38 10 -71 53
-23 28 -45 53 -50 55 -4 2 -9 -21 -11 -50 -3 -52 -4 -53 -33 -53 l-30 0 -3
133 -3 132 80 0 c74 0 81 -2 100 -26z m251 7 c0 -11 -4 -23 -10 -26 -5 -3 -10
-44 -10 -91 0 -49 4 -84 10 -84 16 0 11 -37 -6 -44 -55 -21 -100 6 -76 45 15
23 16 165 2 174 -5 3 -10 15 -10 26 0 16 7 19 50 19 43 0 50 -3 50 -19z m319
-102 c28 -66 51 -127 51 -135 0 -8 -10 -14 -25 -14 -19 0 -31 10 -47 35 -19
34 -23 36 -67 33 -39 -3 -48 -7 -59 -30 -13 -29 -57 -47 -72 -32 -5 5 9 52 31
104 68 165 64 160 103 160 l34 0 51 -121z m326 95 c30 -33 32 -63 5 -97 -11
-14 -20 -28 -20 -32 0 -4 16 -29 35 -55 19 -26 35 -50 35 -53 0 -7 -68 -3 -73
4 -26 37 -81 99 -88 99 -5 0 -9 -25 -9 -56 0 -54 0 -55 -27 -52 l-28 3 -3 133
-3 132 76 0 c69 0 78 -2 100 -26z"/>
<path d="M3975 6156 l-129 -123 29 -34 c17 -19 50 -65 74 -102 24 -37 46 -67
49 -67 3 0 40 21 82 47 l77 46 -9 46 c-5 25 -17 106 -26 179 l-18 132 -129
-124z"/>
<path d="M4133 6249 c4 -19 14 -90 22 -159 9 -69 19 -135 24 -146 8 -19 20
-22 123 -28 62 -4 171 -14 241 -22 71 -9 131 -14 133 -12 2 3 -202 153 -508
372 l-41 29 6 -34z"/>
<path d="M3490 6091 c0 -13 144 -301 151 -301 10 0 171 231 165 237 -2 2 -51
13 -108 24 -56 11 -127 26 -155 33 -29 7 -53 11 -53 7z"/>
<path d="M3451 6038 c-7 -18 -25 -69 -41 -113 -16 -44 -42 -118 -59 -164 l-31
-83 22 4 c33 7 271 78 275 82 2 2 -28 67 -67 145 -38 77 -70 146 -70 151 0 21
-16 8 -29 -22z"/>
<path d="M3784 5941 c-27 -40 -67 -98 -90 -128 -41 -55 -41 -57 -27 -92 8 -20
22 -46 31 -58 17 -22 18 -22 84 -8 37 7 109 21 160 30 51 9 96 19 100 23 6 6
-111 181 -183 273 l-25 33 -50 -73z"/>
<path d="M4191 5843 c13 -119 33 -233 41 -231 5 2 85 59 179 128 l171 125 -74
7 c-40 3 -122 11 -183 17 -60 6 -117 11 -125 11 -13 0 -15 -10 -9 -57z"/>
<path d="M4083 5851 c-34 -20 -63 -40 -63 -45 0 -4 14 -29 32 -55 30 -44 32
-50 29 -128 l-3 -81 56 22 c31 13 59 25 61 28 3 3 -4 67 -15 142 -11 75 -20
141 -20 147 0 14 -9 10 -77 -30z"/>
<path d="M4552 5814 l-64 -46 43 -25 c24 -13 72 -40 108 -60 37 -20 85 -46
107 -60 41 -23 42 -23 140 -9 55 8 152 20 217 26 65 7 117 14 115 15 -2 2
-111 47 -243 100 -183 74 -254 98 -300 101 -59 5 -61 4 -123 -42z"/>
<path d="M4355 5669 c-60 -44 -111 -84 -113 -88 -1 -4 15 -25 35 -47 252 -268
317 -334 323 -327 9 10 160 363 160 373 0 7 -280 170 -291 170 -2 0 -53 -37
-114 -81z"/>
<path d="M3506 5704 c-66 -19 -122 -36 -124 -38 -2 -2 45 -7 105 -10 59 -4
127 -9 151 -12 l43 -5 -26 50 c-14 28 -26 51 -28 51 -1 -1 -56 -17 -121 -36z"/>
<path d="M3975 5665 c-33 -7 -93 -18 -134 -25 -89 -15 -85 -19 70 -59 63 -16
122 -33 132 -36 15 -6 17 1 17 64 0 51 -4 71 -12 70 -7 -1 -40 -7 -73 -14z"/>
<path d="M3246 5587 c-27 -29 -98 -102 -158 -163 l-108 -110 132 -28 c73 -15
159 -35 190 -43 32 -9 65 -13 75 -10 66 21 249 89 254 95 5 6 -312 303 -330
309 -3 1 -28 -21 -55 -50z"/>
<path d="M3365 5614 c17 -15 75 -68 130 -119 55 -51 114 -104 132 -119 l31
-26 6 27 c3 16 8 76 12 134 l6 106 -98 7 c-55 3 -133 9 -174 12 l-75 5 30 -27z"/>
<path d="M5105 5614 c-11 -1 -82 -10 -158 -20 l-137 -17 42 -36 c23 -20 97
-85 163 -145 135 -122 400 -330 383 -300 -6 9 -191 475 -201 507 -6 16 -34 20
-92 11z"/>
<path d="M3701 5493 c-7 -65 -15 -129 -18 -142 l-6 -24 184 7 c101 4 184 8
185 9 1 1 4 40 6 85 5 82 4 84 -20 93 -29 11 -151 45 -232 64 -30 8 -62 16
-71 20 -14 5 -18 -11 -28 -112z"/>
<path d="M4133 5537 l-53 -22 0 -97 0 -96 82 -71 c45 -39 83 -69 85 -67 2 2
-4 59 -12 127 -9 68 -19 152 -22 187 -3 36 -10 62 -17 61 -6 0 -35 -10 -63
-22z"/>
<path d="M4765 5523 c-9 -21 -44 -103 -79 -183 -35 -80 -63 -146 -62 -147 3
-3 215 31 326 52 41 8 94 17 118 20 23 4 40 11 36 16 -10 16 -308 279 -316
279 -5 0 -15 -17 -23 -37z"/>
<path d="M4234 5527 c3 -10 9 -44 12 -75 7 -79 35 -286 39 -292 4 -7 285 22
285 29 -1 3 -77 85 -171 181 -94 96 -168 167 -165 157z"/>
<path d="M3710 5300 c0 -3 26 -28 58 -56 31 -27 103 -90 158 -141 l101 -92
106 62 c59 34 106 64 107 67 0 10 -17 28 -98 98 l-83 73 -175 -2 c-96 -1 -174
-5 -174 -9z"/>
<path d="M3618 5295 c-3 -3 -52 -21 -109 -41 -57 -19 -152 -58 -211 -86 l-107
-51 -158 -190 c-193 -232 -188 -226 -171 -231 7 -3 82 -19 167 -37 l154 -33
19 24 c11 14 67 78 125 143 70 78 113 136 127 170 22 52 75 147 147 264 22 34
39 65 39 68 0 7 -15 7 -22 0z"/>
<path d="M3632 5233 c-22 -37 -61 -103 -86 -145 l-46 -78 247 0 c242 0 247 0
228 19 -11 10 -60 54 -110 98 -49 44 -113 101 -142 127 l-52 47 -39 -68z"/>
<path d="M2941 5230 c-18 -50 -39 -78 -126 -167 -58 -59 -103 -108 -102 -110
2 -1 53 18 113 43 60 25 156 64 214 86 58 23 109 45 114 49 6 5 4 18 -4 34
-10 19 -11 30 -2 50 7 14 12 27 12 29 0 5 -168 46 -188 46 -5 0 -19 -27 -31
-60z"/>
<path d="M5021 5232 l-85 -17 -28 -185 c-15 -101 -25 -187 -20 -191 4 -4 39
-16 77 -27 39 -11 152 -45 251 -76 100 -31 187 -56 192 -56 9 0 77 41 90 55 2
2 -29 50 -69 107 -243 344 -291 408 -307 407 -9 0 -55 -8 -101 -17z"/>
<path d="M3174 5216 c-6 -27 3 -66 16 -66 21 0 132 60 119 64 -93 31 -127 32
-135 2z"/>
<path d="M4805 5195 c-38 -8 -94 -17 -123 -21 -62 -8 -62 -9 3 -91 25 -32 74
-95 109 -140 l63 -83 6 48 c8 60 33 215 42 265 8 43 10 43 -100 22z"/>
<path d="M4414 5141 l-122 -16 82 -137 c75 -128 96 -155 96 -127 0 6 25 74 55
151 30 77 55 141 55 144 0 6 -28 3 -166 -15z"/>
<path d="M4595 5128 c-3 -7 -29 -77 -59 -155 l-54 -141 177 5 c97 3 177 6 178
7 4 3 -216 284 -227 291 -5 3 -12 0 -15 -7z"/>
<path d="M4158 5062 c-54 -31 -98 -59 -98 -62 0 -3 30 -17 68 -32 37 -14 117
-47 177 -73 155 -65 143 -62 124 -39 -9 10 -49 74 -88 142 -40 67 -75 122 -79
121 -4 0 -51 -26 -104 -57z"/>
<path d="M3070 5070 c-25 -11 -128 -53 -230 -94 l-185 -75 -8 -101 c-5 -56 -7
-103 -5 -104 2 -2 42 0 90 3 l87 6 160 193 c88 105 154 192 148 191 -7 -1 -32
-9 -57 -19z"/>
<path d="M3510 4984 c0 -3 51 -64 113 -135 l113 -131 225 -143 c123 -79 225
-142 227 -140 2 2 -30 108 -71 237 -42 128 -81 252 -88 276 l-12 42 -254 0
c-139 0 -253 -2 -253 -6z"/>
<path d="M4050 4964 c0 -4 24 -81 54 -173 30 -91 66 -204 80 -251 15 -47 29
-90 34 -96 4 -7 51 64 115 173 60 102 105 189 100 193 -8 9 -321 142 -360 154
-13 4 -23 4 -23 0z"/>
<path d="M3472 4923 c-26 -86 -122 -486 -118 -490 5 -5 346 273 347 282 1 9
-203 245 -211 245 -4 0 -12 -17 -18 -37z"/>
<path d="M2562 4815 l-56 -56 53 -30 c29 -17 54 -29 56 -27 5 7 15 168 10 168
-4 0 -32 -25 -63 -55z"/>
<path d="M3315 4744 c-60 -69 -111 -129 -113 -134 -2 -5 14 -35 36 -67 21 -32
48 -73 59 -92 l21 -35 11 40 c68 263 101 398 99 405 -2 5 -52 -48 -113 -117z"/>
<path d="M4628 4811 c-58 -3 -109 -9 -113 -13 -4 -3 3 -12 15 -18 12 -6 155
-105 318 -219 164 -114 310 -216 327 -227 30 -19 -16 52 -241 376 l-77 110
-61 -2 c-34 -1 -109 -4 -168 -7z"/>
<path d="M4985 4678 c46 -68 127 -187 180 -265 126 -184 159 -209 170 -125 10
67 55 324 61 344 4 13 -3 21 -23 29 -46 18 -447 139 -460 139 -7 0 25 -55 72
-122z"/>
<path d="M4483 4775 c6 -18 22 -94 47 -215 31 -153 50 -224 62 -231 7 -5 34
-9 60 -9 26 0 120 -6 210 -14 239 -21 343 -27 332 -16 -5 4 -76 55 -159 112
-345 240 -492 343 -524 367 -30 23 -33 23 -28 6z"/>
<path d="M4443 4758 c-6 -7 -44 -71 -85 -143 -42 -71 -85 -147 -98 -168 -12
-21 -21 -39 -19 -41 2 -2 73 -19 157 -38 172 -39 161 -43 137 56 -8 34 -28
123 -44 199 -16 77 -32 141 -34 143 -2 3 -9 -1 -14 -8z"/>
<path d="M2500 4700 c0 -34 9 -53 47 -103 l47 -61 9 39 c15 75 7 95 -50 132
l-53 34 0 -41z"/>
<path d="M2690 4671 l-55 -6 -3 -69 -3 -69 73 68 c40 38 75 72 76 77 4 8 1 8
-88 -1z"/>
<path d="M2727 4587 l-99 -92 64 -38 c35 -21 99 -61 143 -88 44 -27 82 -49 85
-49 6 0 217 252 232 276 6 8 -9 15 -50 23 -70 13 -241 50 -262 56 -9 2 -55
-34 -113 -88z"/>
<path d="M3609 4602 c-53 -42 -132 -106 -177 -142 -44 -36 -81 -68 -81 -71 -1
-6 342 -259 350 -259 2 0 6 124 8 275 2 151 2 275 0 275 -2 0 -47 -35 -100
-78z"/>
<path d="M3760 4674 c0 -5 43 -96 95 -202 52 -106 95 -197 95 -202 0 -16 7
-13 126 57 l115 68 -28 20 c-15 11 -104 69 -198 128 -93 60 -178 116 -187 125
-10 8 -18 11 -18 6z"/>
<path d="M3732 4390 c-2 -171 1 -260 7 -260 6 0 37 17 70 38 32 20 75 46 95
57 l36 20 -100 203 c-54 111 -100 202 -102 202 -2 0 -4 -117 -6 -260z"/>
<path d="M3066 4453 c-58 -70 -104 -128 -103 -129 3 -3 53 7 210 42 92 21 126
32 122 41 -10 29 -107 173 -116 173 -5 0 -56 -57 -113 -127z"/>
<path d="M2620 4432 l0 -38 102 -27 c56 -14 103 -25 105 -24 3 3 -194 127
-202 127 -3 0 -5 -17 -5 -38z"/>
<path d="M4240 4357 c0 -12 11 -73 23 -136 l23 -113 74 -54 c41 -30 118 -85
170 -123 52 -38 112 -83 134 -100 43 -35 62 -40 51 -13 -4 9 -39 118 -77 242
-39 124 -76 230 -82 236 -6 7 -74 26 -151 44 -77 17 -146 33 -152 35 -8 3 -13
-5 -13 -18z"/>
<path d="M3110 4327 c-194 -45 -172 -45 -365 7 l-90 24 110 -103 c61 -57 117
-104 126 -105 8 0 42 8 75 19 32 10 84 25 114 34 202 57 199 56 210 95 12 44
13 72 3 71 -5 -1 -87 -20 -183 -42z"/>
<path d="M4087 4305 c-60 -35 -111 -66 -114 -68 -4 -4 15 -148 58 -454 7 -46
15 -83 18 -83 3 0 52 92 108 204 l103 204 -15 79 c-30 157 -37 183 -43 182 -4
0 -56 -29 -115 -64z"/>
<path d="M3327 4352 c-3 -4 -9 -31 -12 -59 -7 -49 -5 -54 101 -261 60 -117
111 -212 114 -212 3 0 16 19 29 43 13 23 50 84 82 135 33 52 57 97 54 102 -4
7 -286 211 -337 244 -14 9 -29 13 -31 8z"/>
<path d="M4590 4297 c0 -3 11 -38 24 -78 14 -41 29 -90 34 -109 6 -19 36 -118
67 -220 31 -102 61 -206 66 -232 12 -55 24 -67 38 -39 6 11 101 156 210 322
110 166 198 306 195 311 -3 4 -38 8 -78 8 -40 0 -144 6 -232 14 -242 22 -324
28 -324 23z"/>
<path d="M3841 4160 c-46 -27 -88 -53 -94 -59 -6 -6 9 -36 44 -85 30 -41 92
-130 138 -196 46 -67 85 -120 86 -118 8 8 -71 508 -80 508 -5 0 -48 -23 -94
-50z"/>
<path d="M3315 4085 l7 -100 46 -43 c132 -121 132 -122 36 65 -48 92 -89 170
-91 173 -3 3 -2 -40 2 -95z"/>
<path d="M4163 3863 l-111 -225 32 -37 c18 -20 81 -98 140 -174 60 -76 110
-136 112 -135 2 2 12 64 23 138 12 74 25 162 31 195 5 33 19 123 31 199 l21
140 -27 22 c-16 12 -54 40 -84 62 l-56 39 -112 -224z"/>
<path d="M3726 3983 c-15 -181 -19 -480 -7 -559 7 -43 16 -128 21 -189 15
-193 31 -359 38 -400 7 -36 17 -5 110 320 56 198 109 389 118 425 l17 65 -145
207 -145 207 -7 -76z"/>
<path d="M3681 4018 c-128 -202 -138 -225 -227 -490 -48 -145 -89 -269 -92
-277 -10 -27 25 3 172 146 l146 143 11 167 c5 93 9 205 7 251 -3 76 -4 81 -17
60z"/>
<path d="M3243 3747 c-40 -116 -71 -212 -70 -214 2 -1 41 27 88 63 46 36 116
89 155 119 40 29 75 59 80 66 5 8 -5 24 -28 43 -19 17 -62 54 -94 83 l-60 51
-71 -211z"/>
<path d="M4441 3797 c-24 -159 -41 -268 -66 -416 -8 -49 -15 -96 -15 -105 0
-9 24 -28 59 -45 l59 -30 22 52 c12 29 67 148 121 265 55 118 99 221 98 230 0
10 -35 42 -77 72 -42 30 -99 72 -127 92 l-51 36 -23 -151z"/>
<path d="M3450 3712 c-220 -169 -290 -225 -290 -233 0 -13 86 -377 97 -409 3
-9 15 10 29 45 28 68 216 627 212 630 -2 1 -23 -14 -48 -33z"/>
<path d="M4053 3568 c4 -18 11 -94 16 -168 6 -74 16 -202 22 -284 l12 -149 59
-68 c32 -38 60 -69 62 -69 2 0 27 97 56 216 l53 215 -30 32 c-16 18 -78 94
-138 170 -59 75 -110 137 -112 137 -3 0 -3 -15 0 -32z"/>
<path d="M4020 3546 c0 -8 -31 -124 -69 -258 -165 -581 -160 -559 -149 -587 5
-14 48 -98 96 -186 l86 -160 23 150 c13 83 28 182 34 220 6 39 15 97 20 130
12 85 11 176 -6 387 -8 101 -15 212 -17 246 -2 35 -6 66 -10 68 -5 3 -8 -2 -8
-10z"/>
<path d="M3515 3347 l-170 -165 47 -93 c26 -52 92 -180 146 -285 l99 -191 61
51 62 51 -5 75 c-3 41 -10 118 -15 170 -5 52 -17 172 -26 265 -9 94 -19 196
-22 228 l-7 58 -170 -164z"/>
<path d="M2100 2045 c0 -42 2 -46 23 -43 19 3 22 9 22 43 0 34 -3 40 -22 43
-21 3 -23 -1 -23 -43z"/>
<path d="M2100 1870 c0 -48 2 -51 23 -48 19 3 22 9 22 48 0 39 -3 45 -22 48
-21 3 -23 0 -23 -48z"/>
<path d="M2920 2036 c0 -53 1 -56 26 -56 24 0 25 2 22 53 -3 45 -6 52 -25 55
-22 3 -23 0 -23 -52z"/>
<path d="M3990 1961 c0 -71 4 -132 9 -135 5 -4 16 -3 25 0 14 6 16 24 14 133
-3 122 -4 126 -25 129 -23 3 -23 2 -23 -127z"/>
<path d="M5867 2083 c-4 -3 -7 -61 -7 -129 0 -102 3 -123 16 -128 9 -3 20 -4
25 0 5 3 9 63 9 135 0 118 -2 129 -18 129 -10 0 -22 -3 -25 -7z"/>
<path d="M2195 1525 c-42 -41 -33 -105 18 -131 28 -15 32 -15 56 4 37 27 42
101 10 131 -30 28 -54 26 -84 -4z"/>
<path d="M2915 1524 c-29 -31 -32 -70 -9 -102 24 -34 50 -45 77 -31 53 29 64
93 22 134 -31 32 -60 32 -90 -1z"/>
<path d="M4449 1521 c-33 -33 -35 -50 -14 -91 32 -62 94 -59 120 4 17 41 8 76
-27 100 -32 22 -45 20 -79 -13z"/>
<path d="M4962 1468 c3 -82 3 -83 30 -86 40 -5 68 28 68 81 0 58 -22 87 -66
87 l-35 0 3 -82z"/>
<path d="M6060 1519 c0 -27 3 -30 28 -27 21 2 28 9 30 31 3 24 0 27 -27 27
-28 0 -31 -3 -31 -31z"/>
<path d="M6641 1480 c-14 -42 -15 -40 15 -40 22 0 24 3 18 23 -14 47 -21 51
-33 17z"/>
<path d="M6954 1536 c-11 -28 4 -48 33 -44 22 2 28 8 28 28 0 20 -6 26 -28 28
-18 2 -29 -2 -33 -12z"/>
</g>
</svg>
