<?xml version="1.0" standalone="no"?>
<!DOCTYPE svg PUBLIC "-//W3C//DTD SVG 20010904//EN"
 "http://www.w3.org/TR/2001/REC-SVG-20010904/DTD/svg10.dtd">
<svg version="1.0" xmlns="http://www.w3.org/2000/svg"
 width="113.000000pt" height="100.000000pt" viewBox="0 0 113.000000 100.000000"
 preserveAspectRatio="xMidYMid meet">

<g transform="translate(0.000000,100.000000) scale(0.100000,-0.100000)"
fill="#000000" stroke="none">
<path d="M0 500 l0 -500 565 0 565 0 0 500 0 500 -565 0 -565 0 0 -500z m547
304 c-3 -3 -12 -4 -19 -1 -8 3 -5 6 6 6 11 1 17 -2 13 -5z m-12 -44 c3 -5 1
-10 -4 -10 -6 0 -11 5 -11 10 0 6 2 10 4 10 3 0 8 -4 11 -10z m110 -70 c3 -5
1 -10 -4 -10 -6 0 -11 5 -11 10 0 6 2 10 4 10 3 0 8 -4 11 -10z m-445 -389 c0
-5 -6 -12 -12 -15 -10 -5 -10 -7 0 -12 19 -9 14 -24 -8 -24 -16 0 -20 7 -20
30 0 23 4 30 20 30 11 0 20 -4 20 -9z m55 -21 c-11 -42 -18 -42 -28 0 -5 21
-3 26 14 26 17 0 19 -5 14 -26z m65 0 c0 -23 -4 -30 -20 -30 -16 0 -20 7 -20
30 0 23 4 30 20 30 16 0 20 -7 20 -30z m52 23 c-10 -4 -10 -8 -1 -19 9 -11 8
-14 -2 -14 -11 0 -11 -2 1 -10 12 -8 11 -10 -7 -10 -19 0 -23 6 -23 30 0 25 4
30 23 29 12 0 16 -3 9 -6z m68 -23 c0 -23 -4 -30 -20 -30 -16 0 -20 7 -20 30
0 23 4 30 20 30 16 0 20 -7 20 -30z m90 0 c0 -23 -5 -30 -18 -30 -14 0 -19 8
-20 30 0 23 4 30 19 30 14 0 19 -7 19 -30z m65 0 c0 -18 -7 -26 -23 -28 -19
-3 -22 1 -22 28 0 27 3 31 22 28 16 -2 23 -10 23 -28z m49 -22 c7 -5 3 -8 -10
-8 -18 0 -20 5 -15 33 5 29 6 30 9 7 2 -14 9 -28 16 -32z m45 30 c2 33 21 27
21 -8 0 -23 -4 -30 -20 -30 -16 0 -20 6 -19 33 1 30 1 31 9 7 8 -24 8 -24 9
-2z m73 10 c-5 -7 -12 -22 -14 -33 -3 -14 -6 -11 -9 13 -5 27 -2 32 14 32 14
0 17 -3 9 -12z m38 -18 c0 -16 -4 -30 -10 -30 -5 0 -10 14 -10 30 0 17 5 30
10 30 6 0 10 -13 10 -30z m60 0 c0 -23 -4 -30 -20 -30 -16 0 -20 7 -20 30 0
23 4 30 20 30 16 0 20 -7 20 -30z m41 18 c0 -10 2 -10 6 0 9 22 23 12 23 -17
0 -24 -4 -28 -25 -28 -21 0 -25 4 -25 28 0 28 19 43 21 17z m86 -20 c3 -23 0
-28 -17 -28 -11 0 -20 5 -20 11 0 5 6 7 13 3 6 -4 4 2 -6 13 -18 21 -13 36 12
31 8 -2 16 -15 18 -30z m-830 -73 c-9 -21 -27 -19 -27 3 0 14 2 15 10 2 8 -13
10 -12 10 4 0 11 3 17 6 13 4 -3 4 -13 1 -22z m53 2 c0 -16 -3 -17 -14 -8 -11
9 -15 9 -19 -1 -3 -7 -6 -4 -6 7 -1 14 5 21 19 21 13 0 20 -7 20 -19z m73 15
c3 7 6 4 6 -7 1 -14 -5 -21 -19 -21 -13 0 -20 7 -20 19 0 16 3 17 14 8 11 -9
15 -9 19 1z m53 -3 c10 -17 -13 -36 -27 -22 -12 12 -4 33 11 33 5 0 12 -5 16
-11z m44 1 c0 8 2 11 5 8 7 -7 -5 -38 -15 -38 -4 0 -10 9 -13 21 -4 16 -3 18
9 8 11 -9 14 -9 14 1z m57 -5 c7 -20 -2 -29 -21 -22 -9 4 -13 13 -10 22 8 19
23 19 31 0z m99 -5 c0 -11 -4 -20 -8 -20 -4 0 -8 9 -8 20 0 11 4 20 8 20 4 0
8 -9 8 -20z m31 -12 c-3 -7 -5 -2 -5 12 0 14 2 19 5 13 2 -7 2 -19 0 -25z m36
12 c-3 -11 -7 -20 -9 -20 -2 0 -4 9 -4 20 0 11 4 20 9 20 5 0 7 -9 4 -20z m53
9 c10 -17 -13 -36 -27 -22 -12 12 -4 33 11 33 5 0 12 -5 16 -11z m74 -9 c0
-11 -7 -20 -15 -20 -8 0 -15 9 -15 20 0 11 7 20 15 20 8 0 15 -9 15 -20z m33
0 c-3 -11 -7 -20 -9 -20 -2 0 -4 9 -4 20 0 11 4 20 9 20 5 0 7 -9 4 -20z m67
10 c-13 -9 -13 -11 0 -20 9 -6 10 -10 3 -10 -6 0 -15 5 -18 10 -8 13 3 30 18
30 7 0 6 -4 -3 -10z m56 -12 c1 -11 -3 -15 -12 -11 -17 6 -19 36 -2 31 6 -2
12 -11 14 -20z m31 -10 c-3 -7 -5 -2 -5 12 0 14 2 19 5 13 2 -7 2 -19 0 -25z
m53 2 c0 -3 -9 -6 -19 -6 -16 0 -18 4 -9 19 8 16 12 17 19 6 5 -8 9 -16 9 -19z
m43 11 c3 -14 1 -18 -9 -14 -8 3 -14 11 -14 19 0 21 17 17 23 -5z m-513 -6 c0
-8 -4 -15 -10 -15 -5 0 -7 7 -4 15 4 8 8 15 10 15 2 0 4 -7 4 -15z"/>
<path d="M572 280 c0 -14 2 -19 5 -12 2 6 2 18 0 25 -3 6 -5 1 -5 -13z"/>
<path d="M842 280 c0 -14 2 -19 5 -12 2 6 2 18 0 25 -3 6 -5 1 -5 -13z"/>
<path d="M310 210 c0 -5 5 -10 10 -10 6 0 10 5 10 10 0 6 -4 10 -10 10 -5 0
-10 -4 -10 -10z"/>
<path d="M635 210 c-3 -5 -1 -10 4 -10 6 0 11 5 11 10 0 6 -2 10 -4 10 -3 0
-8 -4 -11 -10z"/>
</g>
</svg>
